<?xml version="1.0" standalone="no"?>
<svg xmlns:xlink="http://www.w3.org/1999/xlink" id="wave" style="transform:rotate(0deg); transition: 0.3s" viewBox="0 0 1440 100" version="1.1" xmlns="http://www.w3.org/2000/svg"><defs><linearGradient id="sw-gradient-0" x1="0" x2="0" y1="1" y2="0"><stop stop-color="rgba(20, 33, 61, 1)" offset="0%"/><stop stop-color="rgba(20, 33, 61, 1)" offset="100%"/></linearGradient></defs><path style="transform:translate(0, 0px); opacity:1" fill="url(#sw-gradient-0)" d="M0,60L240,61.7C480,63,960,67,1440,66.7C1920,67,2400,63,2880,63.3C3360,63,3840,67,4320,70C4800,73,5280,77,5760,68.3C6240,60,6720,40,7200,40C7680,40,8160,60,8640,63.3C9120,67,9600,53,10080,45C10560,37,11040,33,11520,33.3C12000,33,12480,37,12960,38.3C13440,40,13920,40,14400,35C14880,30,15360,20,15840,16.7C16320,13,16800,17,17280,20C17760,23,18240,27,18720,25C19200,23,19680,17,20160,15C20640,13,21120,17,21600,15C22080,13,22560,7,23040,18.3C23520,30,24000,60,24480,61.7C24960,63,25440,37,25920,26.7C26400,17,26880,23,27360,21.7C27840,20,28320,10,28800,6.7C29280,3,29760,7,30240,20C30720,33,31200,57,31680,55C32160,53,32640,27,33120,13.3C33600,0,34080,0,34320,0L34560,0L34560,100L34320,100C34080,100,33600,100,33120,100C32640,100,32160,100,31680,100C31200,100,30720,100,30240,100C29760,100,29280,100,28800,100C28320,100,27840,100,27360,100C26880,100,26400,100,25920,100C25440,100,24960,100,24480,100C24000,100,23520,100,23040,100C22560,100,22080,100,21600,100C21120,100,20640,100,20160,100C19680,100,19200,100,18720,100C18240,100,17760,100,17280,100C16800,100,16320,100,15840,100C15360,100,14880,100,14400,100C13920,100,13440,100,12960,100C12480,100,12000,100,11520,100C11040,100,10560,100,10080,100C9600,100,9120,100,8640,100C8160,100,7680,100,7200,100C6720,100,6240,100,5760,100C5280,100,4800,100,4320,100C3840,100,3360,100,2880,100C2400,100,1920,100,1440,100C960,100,480,100,240,100L0,100Z"/></svg>